<?xml version="1.0" encoding="iso-8859-1"?>
<!-- Generator: Adobe Illustrator 19.0.0, SVG Export Plug-In . SVG Version: 6.00 Build 0)  -->
<svg version="1.1" id="Layer_1" xmlns="http://www.w3.org/2000/svg" xmlns:xlink="http://www.w3.org/1999/xlink" x="0px" y="0px"
	 viewBox="0 0 512 512" style="enable-background:new 0 0 512 512;" xml:space="preserve">
<path style="fill:#DADADA;" d="M488.727,201.697H333.576h-69.818h-46.545h-38.788c-12.853,0-23.273,10.42-23.273,23.273v263.758
	c0,12.853,10.42,23.273,23.273,23.273h155.152h155.152C501.58,512,512,501.58,512,488.727V224.97
	C512,212.117,501.58,201.697,488.727,201.697z"/>
<path style="fill:#DADADA;" d="M23.273,248.242c12.853,0,23.273-10.42,23.273-23.273v-93.092c0-47.051,38.281-85.332,85.333-85.332
	s85.333,38.281,85.333,85.332v69.82h46.545v-69.82C263.758,59.161,204.597,0,131.879,0S0,59.161,0,131.877v93.092
	C0,237.822,10.42,248.242,23.273,248.242z"/>
<path style="fill:#DADADA;" d="M178.424,201.697c-12.853,0-23.273,10.42-23.273,23.273v263.758c0,12.853,10.42,23.273,23.273,23.273
	h155.152V201.697h-69.818h-46.545H178.424z"/>
<g>
</g>
<g>
</g>
<g>
</g>
<g>
</g>
<g>
</g>
<g>
</g>
<g>
</g>
<g>
</g>
<g>
</g>
<g>
</g>
<g>
</g>
<g>
</g>
<g>
</g>
<g>
</g>
<g>
</g>
</svg>
